PathFileType	4	(X/Y/Z)	 s08c0201.trc
DataRate	CameraRate	NumFrames	NumMarkers	Units	OrigDataRate	OrigDataStartFrame	OrigNumFrames
200	200	4	50	mm	200	751	2000
Frame#	Time	racr			lacr			c7			jug			rlel			rdr			llel			ldr			s2			lic			ric			lasi			rasi			rpsi			lpsi			rgt			lgt			rth1			rth2			rth3			rth4			rlfc			rmfc			rsh1			rsh2			rsh3			rsh4			rlmal			rmmal			rcal			rtoe			rmt5			lth1			lth2			lth4			lth3			llfc			lmfc			llmal			lmmal			lcal			lmt5			lsh1			lsh2			lsh3			lsh4			ltoe			SBIKE			LBIKE			RBIKE			
		X1	Y1	Z1	X2	Y2	Z2	X3	Y3	Z3	X4	Y4	Z4	X5	Y5	Z5	X6	Y6	Z6	X7	Y7	Z7	X8	Y8	Z8	X9	Y9	Z9	X10	Y10	Z10	X11	Y11	Z11	X12	Y12	Z12	X13	Y13	Z13	X14	Y14	Z14	X15	Y15	Z15	X16	Y16	Z16	X17	Y17	Z17	X18	Y18	Z18	X19	Y19	Z19	X20	Y20	Z20	X21	Y21	Z21	X22	Y22	Z22	X23	Y23	Z23	X24	Y24	Z24	X25	Y25	Z25	X26	Y26	Z26	X27	Y27	Z27	X28	Y28	Z28	X29	Y29	Z29	X30	Y30	Z30	X31	Y31	Z31	X32	Y32	Z32	X33	Y33	Z33	X34	Y34	Z34	X35	Y35	Z35	X36	Y36	Z36	X37	Y37	Z37	X38	Y38	Z38	X39	Y39	Z39	X40	Y40	Z40	X41	Y41	Z41	X42	Y42	Z42	X43	Y43	Z43	X44	Y44	Z44	X45	Y45	Z45	X46	Y46	Z46	X47	Y47	Z47	X48	Y48	Z48	X49	Y49	Z49	X50	Y50	Z50	
751	3.7550	566.400549	1355.690674	-63.070674	578.717015	1348.609638	-409.931260	555.790791	1429.473845	-230.352901	523.563298	1269.572537	-240.785253	568.735243	1117.863368	75.529910	774.063676	936.208427	-42.358524	563.883281	1089.016447	-537.093237	765.129193	935.586300	-423.210740	5.835267	1200.107199	-242.480415	161.336596	1210.051770	-398.022412	160.043569	1215.642476	-82.128464	189.720415	1159.634264	-363.543219	198.918149	1170.858599	-121.052516	34.568915	1242.639136	-194.303121	34.652000	1245.406792	-289.954033	119.095857	1107.724079	-48.668097	110.173269	1078.544183	-422.933653	264.203178	1011.284553	-58.588297	346.969232	981.236021	-70.663946	401.685488	913.250686	-81.266553	365.708144	1010.165576	-85.041928	474.834179	833.945841	-107.997847	445.752605	820.535957	-213.711630	369.434569	765.783662	-66.907183	321.800083	689.855476	-77.125027	246.190006	649.110247	-72.591434	342.095128	669.977354	-105.787338	151.038755	574.247534	-66.916576	176.061330	573.976443	-155.626389	75.857751	602.570102	-111.649935	278.237157	384.994738	-100.761846	193.798299	428.113551	-36.152373	187.637482	960.840985	-433.931442	253.078382	903.014372	-431.693257	283.130560	922.792761	-424.104903	280.411926	818.576015	-429.055983	337.250508	703.442509	-407.794153	337.471711	680.202153	-309.150201	295.607093	286.418456	-403.906777	336.178924	318.297278	-334.024087	232.534214	270.094831	-365.917720	435.649495	191.619979	-413.932793	318.354196	574.125046	-431.657243	334.581231	491.681571	-416.571879	307.847645	407.158952	-414.524405	356.803714	494.035579	-383.121740	517.354535	217.073064	-342.963060	-134.520802	944.239564	-225.909081	26.268557	83.885931	-427.247162	17.736325	80.595958	-28.958258	
752	3.7600	565.956606	1355.096751	-60.274130	580.180604	1349.233705	-406.253434	555.466885	1428.983466	-226.476872	525.069416	1268.782804	-237.812175	568.865071	1116.706829	76.929152	773.561707	936.334974	-43.560321	565.382680	1091.484380	-536.429294	765.459666	936.228643	-424.213507	5.630093	1201.159233	-244.662285	162.644859	1210.461508	-398.785505	157.785057	1217.157180	-83.739858	189.943442	1159.089175	-364.553792	197.790986	1172.548197	-121.577258	32.971260	1243.916597	-196.595218	34.815934	1246.285458	-292.178699	117.496717	1110.780059	-49.510716	109.010220	1078.396088	-423.707490	264.200635	1016.779509	-59.022211	347.594106	988.259972	-70.959336	403.486476	921.572350	-81.290150	366.390199	1017.941624	-84.617956	478.638831	842.951448	-107.158491	450.177432	829.027756	-213.548579	373.259319	774.696064	-67.563340	326.244492	698.507453	-77.130928	250.915064	657.404194	-72.699483	346.651680	678.526000	-105.469530	156.019993	581.589158	-67.243967	180.718916	581.612404	-156.098763	79.636699	608.476600	-111.187378	286.509288	395.290318	-100.798979	201.551175	436.443245	-36.276422	183.304787	959.077953	-434.859805	247.278060	899.609750	-432.873330	277.629009	918.581347	-425.209200	272.491344	814.529260	-430.336541	326.439247	697.758885	-409.100842	326.567572	674.578602	-310.314079	288.614792	280.395736	-404.032536	329.570798	312.268598	-334.458774	226.129588	265.313511	-365.771286	428.003918	183.776491	-414.036627	308.081054	568.197642	-432.503120	325.363722	485.874512	-417.564204	299.561964	401.061990	-415.235383	347.541103	488.429242	-383.884546	510.184046	208.044912	-343.159304	-134.662047	944.226915	-225.871865	26.261135	83.889308	-427.265130	17.736883	80.624163	-29.006563	
753	3.7650	565.527709	1354.501392	-57.498672	581.549945	1349.549545	-401.536351	555.391364	1428.944148	-223.092337	526.040417	1268.542437	-234.381019	568.935939	1115.802479	78.229613	773.215218	936.378075	-44.538796	566.820826	1093.817887	-535.709230	765.769572	936.674771	-424.835813	5.298308	1202.319811	-246.612535	163.906358	1210.738542	-399.327219	156.211148	1218.547416	-84.840429	190.094644	1158.405732	-365.663079	196.622794	1174.155917	-122.005618	31.526861	1245.088974	-198.394178	34.974603	1247.097626	-294.210922	115.948347	1114.103395	-49.949189	107.618823	1078.272129	-424.401997	264.062460	1022.295258	-59.149871	348.356110	995.121022	-71.337270	405.479029	929.856563	-80.684689	366.632170	1025.744842	-83.756908	482.486587	852.143630	-106.631594	454.383273	837.540280	-213.491693	377.349306	783.336776	-67.820645	330.434572	706.751472	-77.114221	255.675165	665.344985	-72.533189	351.359970	686.724192	-105.005607	161.170968	588.395114	-67.468444	186.277741	589.651474	-155.608742	84.076595	613.896239	-111.259887	295.418782	404.818623	-101.212871	210.095822	444.788859	-36.207146	178.947410	957.655652	-435.912927	241.446522	896.503519	-434.209462	272.205228	914.737739	-426.539236	264.427051	810.695315	-431.495607	313.926946	692.499283	-411.287286	316.631171	667.982586	-307.383202	281.115232	274.940552	-404.152914	322.596088	306.604046	-334.952325	219.397229	260.990001	-365.663227	419.872814	176.216536	-414.119743	297.229176	562.790130	-433.648535	315.578862	480.579904	-418.643220	290.702828	395.498699	-415.944519	338.027401	483.439414	-385.143948	502.428426	199.316543	-343.354989	-134.695312	944.231509	-226.044833	26.245104	83.919663	-427.278540	17.723256	80.659162	-29.018334	
754	3.7700	565.019699	1353.830232	-54.699121	583.056387	1349.901953	-397.631075	555.233043	1428.875811	-219.712567	527.124172	1268.266424	-231.245634	569.359426	1114.654864	79.509384	772.921034	936.339540	-45.324064	568.384796	1096.203707	-534.990209	765.916477	936.761467	-424.586421	5.384420	1202.717697	-248.561890	165.314865	1210.981956	-400.021623	154.617734	1219.910636	-86.119196	190.785736	1157.959979	-368.172844	195.473047	1175.730548	-122.462521	30.288205	1246.424344	-200.229010	35.431753	1247.748581	-296.305825	114.307328	1117.074463	-50.477904	106.040935	1078.162038	-425.053130	263.838821	1027.770609	-59.182632	348.705774	1002.062096	-71.078788	406.477638	937.942850	-80.184805	366.333415	1033.253692	-83.352075	486.104091	861.149060	-105.905658	458.380874	845.960516	-212.948251	381.930627	791.924027	-67.320206	335.024618	714.894614	-77.455534	260.461557	673.132663	-72.464987	357.735501	694.403829	-104.063630	166.683452	594.702787	-67.619905	191.634657	595.752405	-155.413186	89.191351	618.665954	-111.655245	305.146193	414.363413	-101.747251	218.581501	452.268363	-36.235968	174.600112	956.244386	-436.985849	235.683255	893.576455	-435.668976	266.873273	911.105924	-427.994441	256.731134	807.210762	-433.046470	303.138233	687.498255	-412.438381	305.921184	663.211832	-308.542331	273.200131	269.955043	-404.317239	315.356986	301.681658	-335.582926	212.155770	257.143617	-365.541481	411.187659	169.353249	-414.205604	285.976782	557.741090	-434.614505	305.382212	475.749707	-419.787725	281.222820	390.457665	-416.775048	328.180220	478.814528	-386.670002	494.423358	191.249751	-343.611630	-134.780065	944.240077	-226.057440	26.235749	83.940783	-427.275937	17.691737	80.680889	-29.029496	
